<svg width="40" height="40" viewBox="0 0 40 40" fill="none" xmlns="http://www.w3.org/2000/svg">
<path d="M35.7578 14.1076C35.7405 12.812 35.4975 11.5293 35.0398 10.3168C34.6429 9.29405 34.0366 8.36524 33.2597 7.58967C32.4829 6.81411 31.5525 6.20885 30.5281 5.81257C29.3292 5.36327 28.0626 5.12033 26.7823 5.09409C25.1339 5.02053 24.6113 5 20.4269 5C16.2424 5 15.7061 5 14.0697 5.09409C12.79 5.12052 11.524 5.36346 10.3256 5.81257C9.30105 6.20857 8.37054 6.81373 7.59365 7.58933C6.81676 8.36493 6.21059 9.29389 5.81392 10.3168C5.36298 11.5128 5.12016 12.7769 5.09596 14.0546C5.02228 15.702 5 16.2237 5 20.4012C5 24.5787 5 25.1124 5.09596 26.7478C5.12166 28.0274 5.36327 29.2899 5.81392 30.4891C6.21125 31.5116 6.81787 32.4402 7.59502 33.2155C8.37217 33.9907 9.30277 34.5957 10.3273 34.9915C11.5224 35.4589 12.7886 35.7192 14.0714 35.7613C15.7215 35.8349 16.2441 35.8571 20.4286 35.8571C24.613 35.8571 25.1493 35.8571 26.7858 35.7613C28.066 35.7362 29.3327 35.4938 30.5315 35.0446C31.5557 34.6478 32.4858 34.0424 33.2626 33.2669C34.0394 32.4914 34.6458 31.5628 35.0432 30.5404C35.4939 29.3429 35.7355 28.0804 35.7612 26.7991C35.8349 25.1535 35.8571 24.6317 35.8571 20.4525C35.8537 16.2751 35.8537 15.7447 35.7578 14.1076ZM20.4166 28.3011C16.0402 28.3011 12.495 24.7617 12.495 20.3926C12.495 16.0236 16.0402 12.4842 20.4166 12.4842C22.5175 12.4842 24.5324 13.3174 26.018 14.8005C27.5036 16.2837 28.3382 18.2952 28.3382 20.3926C28.3382 22.4901 27.5036 24.5016 26.018 25.9848C24.5324 27.4679 22.5175 28.3011 20.4166 28.3011ZM28.6535 14.0358C27.6305 14.0358 26.8063 13.2112 26.8063 12.1917C26.8063 11.9496 26.8541 11.7099 26.9469 11.4863C27.0396 11.2627 27.1756 11.0595 27.3471 10.8883C27.5185 10.7171 27.7221 10.5814 27.9461 10.4887C28.1701 10.3961 28.4102 10.3484 28.6526 10.3484C28.8951 10.3484 29.1352 10.3961 29.3592 10.4887C29.5832 10.5814 29.7867 10.7171 29.9582 10.8883C30.1296 11.0595 30.2656 11.2627 30.3584 11.4863C30.4512 11.7099 30.499 11.9496 30.499 12.1917C30.499 13.2112 29.673 14.0358 28.6535 14.0358Z" fill="white"/>
<path d="M24.7956 20.2906C24.7956 22.7787 22.7787 24.7956 20.2906 24.7956C17.8026 24.7956 15.7856 22.7787 15.7856 20.2906C15.7856 17.8026 17.8026 15.7856 20.2906 15.7856C22.7787 15.7856 24.7956 17.8026 24.7956 20.2906Z" fill="black" stroke="black"/>
</svg>
