<svg width="33" height="31" viewBox="0 0 33 31" fill="none" xmlns="http://www.w3.org/2000/svg">
<path d="M16.5222 0C25.6232 0 33.0001 6.88831 33.0001 15.3843C33.0001 23.8813 25.6232 30.7686 16.5222 30.7686C7.42125 30.7686 0.0444336 23.8812 0.0444336 15.3843C0.0444336 6.88831 7.42137 0 16.5222 0Z" fill="white"/>
<path d="M26.6214 10.3596C25.8786 10.6502 25.0792 10.8455 24.2408 10.9341C25.0974 10.4828 25.7542 9.76973 26.0635 8.91823C25.2622 9.33679 24.3757 9.63993 23.4309 9.8025C22.6752 9.09528 21.5986 8.65356 20.4062 8.65356C18.1191 8.65356 16.2634 10.2827 16.2634 12.2937C16.2634 12.5795 16.2996 12.8576 16.3707 13.1242C12.9272 12.9722 9.87275 11.522 7.83008 9.31946C7.47296 9.85735 7.2689 10.4818 7.2689 11.1496C7.2689 12.4121 8.00006 13.5282 9.11181 14.1798C8.43166 14.1605 7.79389 13.9978 7.23387 13.7237V13.7699C7.23387 15.5346 8.66223 17.0059 10.5583 17.3407C10.2107 17.4235 9.84508 17.4687 9.46672 17.4687C9.19996 17.4687 8.94067 17.4467 8.68768 17.4033C9.21478 18.8505 10.7453 19.9032 12.5595 19.9321C11.1407 20.9097 9.35406 21.491 7.41237 21.491C7.07755 21.491 6.7481 21.4736 6.42285 21.44C8.2583 22.4734 10.435 23.0767 12.7763 23.0767C20.3987 23.0767 24.5671 17.5266 24.5671 12.7153L24.5554 12.2438C25.363 11.7318 26.0656 11.091 26.6214 10.3596Z" fill="#111111"/>
</svg>
