<svg width="60" height="53" viewBox="0 0 60 53" fill="none" xmlns="http://www.w3.org/2000/svg">
<path d="M32.8175 0.428711C23.9649 0.428711 16.1298 4.64494 11.3873 11.079C12.3688 11.6899 13.3255 12.5276 14.2508 13.6045C17.7889 8.55736 23.5096 5.01625 30.1286 4.25502L32.8171 8.59548L35.5056 4.25493C45.68 5.42476 53.7674 13.14 54.9942 22.8468L50.4438 25.4121L54.9942 27.9775C54.1742 34.4672 50.2785 40.0543 44.7517 43.4029C45.1038 44.1686 45.3021 44.9514 45.3371 45.7585C45.363 46.3484 45.2992 46.9057 45.171 47.4347C53.3977 43.2175 59.0049 34.9292 59.0049 25.4125C59.0049 11.6361 47.2576 0.428711 32.8175 0.428711ZM39.5002 41.5747C33.4634 36.946 31.7753 39.2213 29.0362 41.8341C27.1239 43.6592 22.2846 39.8481 18.1061 35.8615C13.9273 31.8743 9.93339 27.2581 11.8455 25.4334C14.5848 22.8205 16.969 21.2091 12.116 15.4512C7.26466 9.69129 4.03061 14.1134 1.37724 16.645C-1.68607 19.5665 1.21582 30.4538 12.4944 41.2156C23.7745 51.976 35.1861 54.7427 38.2476 51.8223C40.9007 49.2906 45.5372 46.2055 39.5002 41.5747ZM21.1145 29.3224C21.1145 24.203 27.3967 23.2909 27.3967 21.2932C27.3967 20.3238 26.5833 19.9168 25.831 19.9168C24.4485 19.9168 23.6767 21.3903 23.6767 21.3903L21.0339 19.7032C21.0339 19.7032 22.3757 16.7165 26.1567 16.7165C28.5349 16.7165 31.1165 18.0161 31.1165 20.9638C31.1165 25.2888 25.2619 26.123 25.1601 27.9072H31.3405V30.8161H21.2774C21.1756 30.2732 21.1145 29.7886 21.1145 29.3224ZM32.8266 25.4054L38.438 16.9489H42.7881V24.6488H44.5158V27.4606H42.7881V30.8163H39.2708V27.4606H32.8267V25.4054H32.8266ZM39.2707 24.6488V21.5457C39.2707 20.7891 39.3929 19.9937 39.3929 19.9937H39.3521C39.3521 19.9937 39.0476 20.8474 38.6406 21.4292L36.4456 24.6101V24.6489L39.2707 24.6488Z" fill="#0096A1"/>
</svg>
