<svg width="41" height="51" viewBox="0 0 41 51" fill="none" xmlns="http://www.w3.org/2000/svg">
<path d="M36.3853 0.301392C37.4342 1.63971 38.0637 3.33616 38.0637 5.18091V5.2172V45.1223V45.1586C38.0637 47.0034 37.4342 48.6998 36.3853 50.0381C38.9133 49.8875 40.9249 47.7406 40.9249 45.1223V5.2172C40.9249 2.59901 38.9133 0.452023 36.3853 0.301392Z" fill="#0096A1"/>
<path d="M15.6929 19.3158C15.807 21.3062 16.1506 23.1686 16.6741 24.575C17.259 26.1452 17.8762 26.6329 18.0349 26.6329C18.1936 26.6329 18.8109 26.1452 19.3957 24.575C19.9194 23.1686 20.2628 21.3062 20.377 19.3158H15.6929Z" fill="#0096A1"/>
<path d="M18.0349 9.07239C17.8762 9.07239 17.259 9.56009 16.6741 11.1303C16.1505 12.5367 15.807 14.3991 15.6929 16.3894H20.377C20.2628 14.3991 19.9193 12.5367 19.3957 11.1303C18.8109 9.56009 18.1936 9.07239 18.0349 9.07239Z" fill="#0096A1"/>
<path d="M23.2424 16.3888H26.4984C26.0502 13.668 24.3748 11.3681 22.0762 10.1078C22.7205 11.8464 23.1237 14.036 23.2424 16.3888Z" fill="#0096A1"/>
<path d="M12.8267 16.3888C12.9454 14.036 13.3486 11.8464 13.9929 10.1078C11.6944 11.3681 10.019 13.668 9.5708 16.3888H12.8267Z" fill="#0096A1"/>
<path d="M30.3227 0.291748H0.867188V50.047H30.3227C33.0133 50.047 35.2024 47.8377 35.2024 45.122V5.21674C35.2024 2.50108 33.0133 0.291748 30.3227 0.291748V0.291748ZM22.3267 42.73H13.7429V39.8033H22.3267V42.73ZM25.188 36.8765H10.8816V33.9497H25.188V36.8765ZM18.0348 29.5595C11.724 29.5595 6.58972 24.3077 6.58972 17.8524C6.58972 11.3971 11.724 6.14531 18.0348 6.14531C24.3456 6.14531 29.4799 11.3971 29.4799 17.8524C29.4799 24.3077 24.3456 29.5595 18.0348 29.5595Z" fill="#0096A1"/>
<path d="M23.2424 19.3158C23.1237 21.6685 22.7205 23.8581 22.0762 25.5966C24.3748 24.3363 26.0502 22.0365 26.4984 19.3158H23.2424Z" fill="#0096A1"/>
<path d="M12.8267 19.3158H9.5708C10.019 22.0365 11.6944 24.3363 13.9929 25.5966C13.3486 23.8581 12.9454 21.6685 12.8267 19.3158Z" fill="#0096A1"/>
</svg>
