<svg width="61" height="53" viewBox="0 0 61 53" fill="none" xmlns="http://www.w3.org/2000/svg">
<path d="M51.4716 28.4882H46.8545C47.3251 29.8062 47.5822 31.2286 47.5822 32.7111V50.5609C47.5822 51.179 47.4771 51.7723 47.2857 52.3241H54.9189C57.7703 52.3241 60.0899 49.9512 60.0899 47.0346V37.3038C60.09 32.4429 56.2238 28.4882 51.4716 28.4882Z" fill="#0096A1"/>
<path d="M12.895 32.4154C12.895 30.9328 13.1521 29.5105 13.6227 28.1925H9.00557C4.2534 28.1925 0.387207 32.1473 0.387207 37.0083V46.7391C0.387207 49.6557 2.70685 52.0286 5.55823 52.0286H13.1915C13.0002 51.4765 12.895 50.8834 12.895 50.2653V32.4154Z" fill="#0096A1"/>
<path d="M35.5161 23.8959H24.9607C20.2085 23.8959 16.3423 27.8507 16.3423 32.7117V50.5617C16.3423 51.5353 17.114 52.3248 18.066 52.3248H42.4108C43.3628 52.3248 44.1345 51.5354 44.1345 50.5617V32.7117C44.1345 27.8507 40.2683 23.8959 35.5161 23.8959Z" fill="#0096A1"/>
<path d="M30.2387 0.520386C24.5236 0.520386 19.874 5.27646 19.874 11.1226C19.874 15.088 22.0136 18.5512 25.1734 20.3695C26.6722 21.2319 28.4 21.7247 30.2387 21.7247C32.0773 21.7247 33.8052 21.2319 35.3039 20.3695C38.4638 18.5512 40.6033 15.0879 40.6033 11.1226C40.6033 5.27658 35.9538 0.520386 30.2387 0.520386Z" fill="#0096A1"/>
<path d="M12.0385 10.4026C7.76431 10.4026 4.28711 13.9595 4.28711 18.3316C4.28711 22.7037 7.76431 26.2606 12.0385 26.2606C13.1227 26.2606 14.1551 26.0309 15.093 25.6179C16.7145 24.9038 18.0515 23.6397 18.8789 22.0563C19.4596 20.945 19.7899 19.6772 19.7899 18.3316C19.7899 13.9596 16.3127 10.4026 12.0385 10.4026Z" fill="#0096A1"/>
<path d="M48.4389 10.4026C44.1647 10.4026 40.6875 13.9595 40.6875 18.3316C40.6875 19.6773 41.0178 20.9451 41.5986 22.0563C42.4259 23.6398 43.7629 24.9039 45.3844 25.6179C46.3223 26.0309 47.3547 26.2606 48.4389 26.2606C52.7132 26.2606 56.1904 22.7037 56.1904 18.3316C56.1904 13.9595 52.7132 10.4026 48.4389 10.4026Z" fill="#0096A1"/>
</svg>
