<svg width="53" height="77" viewBox="0 0 53 77" fill="none" xmlns="http://www.w3.org/2000/svg">
<path d="M35.2259 17.2385C35.6045 17.2385 35.9831 17.1013 36.2719 16.827L46.3737 7.23195C46.9514 6.68323 46.9514 5.79401 46.3737 5.24528C45.796 4.69656 44.8599 4.69656 44.2821 5.24528L34.1803 14.8403C33.6026 15.389 33.6026 16.2783 34.1803 16.827C34.4692 17.1013 34.8478 17.2385 35.2259 17.2385Z" fill="#0096A1"/>
<path d="M19.2757 16.827C19.5439 17.1013 19.8955 17.2385 20.2471 17.2385C20.5981 17.2385 20.9497 17.1013 21.2179 16.827C21.7543 16.2783 21.7543 15.389 21.2179 14.8403L11.8377 5.24528C11.3012 4.69656 10.4319 4.69656 9.89549 5.24528C9.35905 5.79401 9.35905 6.68323 9.89549 7.23195L19.2757 16.827Z" fill="#0096A1"/>
<path d="M27.6834 17.2383C28.456 17.2383 29.0827 16.5682 29.0827 15.7421V7.28398C29.0827 6.4579 28.456 5.78784 27.6834 5.78784C26.9109 5.78784 26.2842 6.4579 26.2842 7.28398V15.7421C26.2842 16.5682 26.9109 17.2383 27.6834 17.2383Z" fill="#0096A1"/>
<path d="M26.3887 2.04081C26.6113 2.59258 27.1661 2.95466 27.7515 2.92342C28.3298 2.89273 28.8378 2.49327 29.0167 1.93035C29.1962 1.36296 29.0009 0.716351 28.5361 0.354829C28.062 -0.0145032 27.4007 -0.0351457 26.9048 0.300154C26.3516 0.67395 26.1371 1.41819 26.3887 2.04081Z" fill="#0096A1"/>
<path d="M0.0745087 43.8161V59.6398C0.0745087 59.6398 3.49155 60.307 4.19549 60.3947C4.8972 60.4823 7.10237 61.188 8.70053 59.6655C11.1651 57.3244 19.9218 48.6935 19.9218 48.6935C19.9218 48.6935 21.4317 47.2251 23.8559 48.4941C26.0813 49.6566 29.3801 51.3603 30.758 52.0237C33.3628 53.3977 35.5217 51.2177 35.5217 49.5571C35.5217 48.2689 34.7106 47.3947 33.5513 46.7518C30.4095 44.8641 23.7874 41.1801 21.0293 39.7277C19.3528 38.8439 18.1449 38.7682 15.8432 40.69C13.0085 43.0528 10.4858 45.2066 10.4858 45.2066C10.4858 45.2066 9.66296 45.8872 8.35074 45.6131C5.12844 44.9379 0.0745087 43.8161 0.0745087 43.8161ZM34.9285 70.6277C34.5044 69.5479 34.6462 68.3402 35.4592 67.5116C36.1897 66.7705 37.2563 66.5752 38.2734 66.8061C37.9889 65.8064 38.146 64.7423 38.8805 63.9914C39.6133 63.2521 40.6779 63.0529 41.6948 63.286C41.4124 62.2877 41.5691 61.2237 42.304 60.475C43.4548 59.3051 45.4453 59.3553 46.753 60.5907C48.0537 61.8277 48.8869 64.069 47.726 65.3882C46.5671 66.7008 45.2354 65.9022 44.2201 65.6729C44.5026 66.6711 45.3488 67.5997 44.3067 68.9064C43.2655 70.2137 41.8161 69.4205 40.7998 69.1933C41.0832 70.1878 41.8925 71.2096 40.8904 72.4211C39.8792 73.6364 38.223 72.9889 37.1292 72.6521C37.5513 73.7278 38.4549 74.8873 37.294 76.1867C36.1349 77.4955 33.4563 76.89 32.1479 75.6527C30.843 74.4157 30.7178 72.4551 31.8655 71.2815C32.6579 70.4764 33.8391 70.2891 34.9285 70.6277ZM11.0546 62.3954C20.5129 53.0211 16.0641 57.4322 21.1541 52.3766C21.1541 52.3766 22.6839 50.8672 24.7 51.744C26.1154 52.3587 27.9376 53.1964 29.3086 53.836C30.8153 54.619 31.8996 54.8613 32.4086 54.858C35.3213 54.8391 37.6844 52.5189 37.6844 49.635C37.6844 47.7642 36.6822 46.1354 35.1876 45.2108C33.0859 43.7694 28.2482 41.2191 28.2482 41.2191C28.2482 41.2191 29.7219 39.3682 32.9504 39.3682C36.1779 39.3682 42.9211 43.7465 42.9211 43.7465C42.9211 43.7465 44.8341 44.9609 47.561 43.8671L52.8169 42.0531V60.1598C52.8169 60.1598 51.3161 60.5904 49.9676 61.1363C49.663 60.2754 49.1716 59.4805 48.4899 58.824C46.2527 56.712 42.5445 56.6901 40.5091 58.7673C39.8959 59.3988 39.468 60.152 39.2496 60.9847C38.4295 61.2356 37.6866 61.6801 37.0896 62.2897C36.4746 62.9169 36.0483 63.6744 35.8281 64.5029C35.0089 64.754 34.2671 65.2001 33.6681 65.8102C32.9935 66.4996 32.5441 67.3324 32.3343 68.2347C31.4779 68.4819 30.7041 68.9419 30.0808 69.5735C28.8575 70.8187 28.4233 72.5083 28.6864 74.138C28.6843 74.138 28.6802 74.138 28.6783 74.1417C28.6583 74.1676 27.9204 74.9829 27.4603 75.4427C26.5585 76.3373 25.086 76.3373 24.1815 75.4427C23.2829 74.5485 23.279 73.0919 24.1815 72.1931C24.2138 72.1612 27.4348 68.822 27.1756 68.563C26.9183 68.3059 22.8146 72.538 22.7381 72.6154C21.8375 73.5082 20.366 73.5082 19.4614 72.6154C18.5589 71.7211 18.5608 70.2646 19.4614 69.3679C19.5056 69.3261 19.6904 69.1507 19.7589 69.0809C19.7589 69.0809 23.8276 65.4886 23.518 65.1817C23.2045 64.8729 18.1505 69.5473 18.1423 69.5473C17.2339 70.3581 15.8345 70.3521 14.9605 69.4855C14.1101 68.6428 14.0919 67.3098 14.8458 66.4115C14.8617 66.3637 18.6974 62.3908 18.3981 62.0919C18.0943 61.7891 14.299 65.6624 14.291 65.6704C13.3924 66.563 11.9189 66.563 11.0142 65.6704C10.1136 64.7777 10.1136 63.3194 11.0142 62.4188C11.0265 62.4112 11.0425 62.4032 11.0546 62.3954Z" fill="#0096A1"/>
</svg>
