<svg width="10" height="9" viewBox="0 0 10 9" fill="none" xmlns="http://www.w3.org/2000/svg">
<path d="M3.50862 6.42127V6.01545L3.65459 5.87161C4.27091 6.37504 5.07105 6.67812 5.94146 6.67812C7.88233 6.67812 9.45557 5.18325 9.45557 3.33906C9.45557 1.49487 7.88233 0 5.94146 0C4.0006 0 2.42736 1.49487 2.42736 3.33906C2.42736 4.16612 2.74633 4.9264 3.27615 5.51202L3.12478 5.65072H2.69768L-7.15256e-05 8.21923L0.805469 8.98464L3.50862 6.42127ZM3.50862 3.33906C3.50862 2.05994 4.59529 1.0274 5.94146 1.0274C7.28764 1.0274 8.3743 2.05994 8.3743 3.33906C8.3743 4.61818 7.28764 5.65072 5.94146 5.65072C4.59529 5.65072 3.50862 4.61818 3.50862 3.33906Z" fill="white"/>
</svg>
